# xmcd
#
# Track frame offsets:
#	150
#	20883
#	41844
#	58440
#	76166
#	96618
#	110541
#	130001
#	146647
#	162387
#	182182
#	198521
#
# Disc length: 2971 seconds
#
# Revision: 2
# Processed by: cddbd v1.5.2PL0 Copyright (c) Steve Scherf et al.
# Submitted via: EasyCDDAExtractor 10.0.5.1
#
DISCID=b70b990c
DTITLE=Various Artist - Uno mejor que el otro
DYEAR=2001
DGENRE=Pop
TTITLE0=Celia Cruz - La Vida Es Un Carnaval
TTITLE1=Moloko - Sing It Back
TTITLE2=Gary Barlow - Stronger
TTITLE3=Chris Perez Band - Por Qué Te Fuiste?
TTITLE4=Diego Torres - Recuerda
TTITLE5=Touch And Go - Straight To Number 1
TTITLE6=Basement Jaxx - Red Alert (Album Version)
TTITLE7=Charlie Zaa - Sentimientos
TTITLE8=New London Beat - Read Between Your Eyes
TTITLE9=Manny Manuel - Eres Tú
TTITLE10=Billy Crawford - Supernatural
TTITLE11=Celia Cruz - La Vida Es Un Carnaval (Zara Mix)
EXTD=
EXTT0=
EXTT1=
EXTT2=
EXTT3=
EXTT4=
EXTT5=
EXTT6=
EXTT7=
EXTT8=
EXTT9=
EXTT10=
EXTT11=
PLAYORDER=
